<svg xmlns="http://www.w3.org/2000/svg" viewBox="0 0 512 512" width="512" height="512">
    <defs>
        <linearGradient id="bg" x1="0" y1="0" x2="1" y2="1">
            <stop offset="0" stop-color="#f5a45e"/>
            <stop offset="1" stop-color="#e8762a"/>
        </linearGradient>
    </defs>
    <!-- fond plein (zone maskable) -->
    <rect width="512" height="512" rx="112" fill="url(#bg)"/>
    <!-- assiette -->
    <circle cx="256" cy="256" r="138" fill="#fff7ee"/>
    <circle cx="256" cy="256" r="138" fill="none" stroke="#ffffff" stroke-opacity=".5" stroke-width="10"/>
    <circle cx="256" cy="256" r="92" fill="none" stroke="#e8762a" stroke-opacity=".25" stroke-width="8"/>
    <!-- fourchette -->
    <g fill="#e8762a">
        <rect x="196" y="196" width="11" height="48" rx="5"/>
        <rect x="214" y="196" width="11" height="48" rx="5"/>
        <rect x="232" y="196" width="11" height="48" rx="5"/>
        <rect x="205" y="238" width="29" height="14" rx="7"/>
        <rect x="212" y="246" width="15" height="78" rx="7"/>
    </g>
    <!-- couteau -->
    <g fill="#e8762a">
        <path d="M300 196c18 0 30 16 30 40s-8 40-22 40v52c0 5-4 8-8 8s-8-3-8-8V196z"/>
    </g>
</svg>
